# xmcd
#
# Track frame offsets: 
#        150
#        47252
#        73132
#        113880
#        157810
#        190200
#        210847
#        226290
#        234475
#        243405
#        263055
#        293212
#        304002
#        315287
#
# Disc length: 4457 seconds
#
# Revision: 4
# Processed by: cddbd v1.5.2PL0 Copyright (c) Steve Scherf et al.
# Submitted via: ExactAudioCopy v1.0b3
#
DISCID=b011670e
DTITLE=Russian State Symphony Orchestra: Polyanski - Grechaninov: Symp
DTITLE=hony No4 Op102, Cello Concerto Op8, Missa Festiva Op154
DYEAR=1997
DGENRE=Classical
TTITLE0=No 4 - 1. Largo
TTITLE1=No 4 - 2. Vivvo
TTITLE2=No 4 - 3. Andante
TTITLE3=No 4 - 4. Allegro vivo
TTITLE4=Cello Concerto - 1. Andante non troppo
TTITLE5=Cello Concerto - 2. Andante
TTITLE6=Cello Concerto - 3. Allegro giocoso
TTITLE7=Cello Concerto - 4. Allegro Vivo
TTITLE8=Missa Festiva - 1. Kyrie
TTITLE9=Missa Festiva - 2. Gloria
TTITLE10=Missa Festiva - 3. Credo
TTITLE11=Missa Festiva - 4. Sanctus
TTITLE12=Missa Festiva - 5. Benedictus
TTITLE13=Missa Festiva - 6. Agnus Dei
EXTD=YEAR: 1997
EXTT0=
EXTT1=
EXTT2=
EXTT3=
EXTT4=
EXTT5=
EXTT6=
EXTT7=
EXTT8=Einfach eine geile Messe
EXTT9=
EXTT10=
EXTT11=
EXTT12=
EXTT13=
PLAYORDER=
